<svg width="32" height="32" viewBox="0 0 32 32" fill="none" xmlns="http://www.w3.org/2000/svg">
<path d="M0 16C0 2.82404 2.82404 0 16 0C29.176 0 32 2.82404 32 16C32 29.176 29.176 32 16 32C2.82404 32 0 29.176 0 16Z" fill="url(#paint0_linear_835_880)"/>
<path d="M11.075 3.50049C15.3488 3.55293 21.2745 10.5011 23.9227 15.2993C25.8629 13.3591 26.9379 11.5499 27.069 10.2389C28.2227 10.4487 29.2715 11.1566 29.2977 12.4152C29.3501 14.0408 27.8818 16.3219 25.4172 18.5768C26.5184 21.5134 26.6495 23.9518 25.6007 25.0793C25.1288 25.5512 24.4995 25.7085 23.8178 25.7085C23.8965 24.1616 23.5294 22.4311 22.8477 20.6481C18.1281 24.0567 12.3336 26.2592 8.87259 26.1018C7.71892 26.0494 6.82745 25.7348 6.30306 25.1055C5.56891 24.2665 5.88355 23.3226 5.93599 23.1915C10.7866 23.9256 17.4464 20.517 21.3794 17.528C18.0757 11.5237 12.2287 5.99136 8.68905 5.99136C8.79393 4.49684 9.58052 3.47427 11.075 3.50049Z" fill="url(#paint1_radial_835_880)"/>
<path d="M21.5886 28.7497C17.1575 28.7497 11.4679 22.2997 8.87211 18.1045C7.06296 19.835 4.23123 23.3222 5.77819 25.2625C5.54222 25.0003 3.36599 22.2472 3.31355 22.1423C2.29098 20.3856 3.83794 17.4752 6.95808 14.5649C5.85685 12.1002 5.41112 10.3435 5.41112 9.00629C5.41112 6.33188 7.09543 5.12361 8.74102 3.78857C7.32515 5.83371 8.84589 9.92397 9.89468 12.1789C14.0112 9.21604 19.8844 6.69896 23.7649 6.69896C25.2332 6.69896 26.3606 6.98737 27.2521 8.11482L29.2186 10.5795C25.8887 7.72152 16.1874 12.4148 11.8349 15.6136C14.4831 19.7826 21.9295 28.3826 25.8624 25.4984C24.9185 26.5735 23.0045 28.7497 21.5886 28.7497Z" fill="url(#paint2_radial_835_880)"/>
<path d="M5.85698 25.3414C5.83076 25.3151 5.80454 25.2889 5.77832 25.2627L5.85698 25.3414Z" fill="white"/>
<defs>
<linearGradient id="paint0_linear_835_880" x1="32" y1="-2.64418e-06" x2="1.17052e-06" y2="32" gradientUnits="userSpaceOnUse">
<stop/>
<stop offset="1" stop-color="#1A0052"/>
</linearGradient>
<radialGradient id="paint1_radial_835_880" cx="0" cy="0" r="1" gradientUnits="userSpaceOnUse" gradientTransform="translate(21.812 16.1682) rotate(129.255) scale(14.1639 14.1543)">
<stop stop-color="#0E012B"/>
<stop offset="0.245616" stop-color="#0E012B"/>
<stop offset="0.555123" stop-color="#0E155A"/>
<stop offset="1" stop-color="#172A80"/>
</radialGradient>
<radialGradient id="paint2_radial_835_880" cx="0" cy="0" r="1" gradientUnits="userSpaceOnUse" gradientTransform="translate(13.6701 11.4284) rotate(85.2602) scale(18.8363 22.1902)">
<stop stop-color="#9DE2FF"/>
<stop offset="0.427083" stop-color="#5E97F9"/>
<stop offset="0.846711" stop-color="#0C34F0"/>
<stop offset="0.994638" stop-color="#101B4B"/>
</radialGradient>
</defs>
</svg>
