<svg width="32" height="32" viewBox="0 0 32 32" fill="none" xmlns="http://www.w3.org/2000/svg">
<path d="M0 16C0 2.82404 2.82404 0 16 0C29.176 0 32 2.82404 32 16C32 29.176 29.176 32 16 32C2.82404 32 0 29.176 0 16Z" fill="url(#paint0_linear_835_907)"/>
<path d="M11.0741 3.50049C15.3479 3.55293 21.2735 10.5011 23.9217 15.2993C25.8619 13.3591 26.937 11.5499 27.0681 10.2389C28.2217 10.4487 29.2705 11.1566 29.2967 12.4152C29.3492 14.0408 27.8809 16.3219 25.4162 18.5768C26.5174 21.5134 26.6485 23.9518 25.5998 25.0793C25.1278 25.5512 24.4985 25.7085 23.8168 25.7085C23.8955 24.1616 23.5284 22.4311 22.8467 20.6481C18.1271 24.0567 12.3326 26.2592 8.87161 26.1018C7.71795 26.0494 6.82648 25.7348 6.30209 25.1055C5.56793 24.2665 5.88257 23.3226 5.93501 23.1915C10.7856 23.9256 17.4454 20.517 21.3784 17.528C18.0747 11.5237 12.2277 5.99136 8.68807 5.99136C8.79295 4.49684 9.57954 3.47427 11.0741 3.50049Z" fill="url(#paint1_radial_835_907)" fill-opacity="0.65"/>
<path d="M21.5877 28.7497C17.1566 28.7497 11.4669 22.2997 8.87114 18.1045C7.06198 19.835 4.23026 23.3222 5.77722 25.2625C5.54124 25.0003 3.36501 22.2472 3.31257 22.1423C2.29 20.3856 3.83696 17.4752 6.9571 14.5649C5.85588 12.1002 5.41014 10.3435 5.41014 9.00629C5.41014 6.33188 7.09446 5.12361 8.74004 3.78857C7.32418 5.83371 8.84492 9.92397 9.8937 12.1789C14.0102 9.21604 19.8834 6.69896 23.7639 6.69896C25.2322 6.69896 26.3596 6.98737 27.2511 8.11482L29.2176 10.5795C25.8877 7.72152 16.1864 12.4148 11.834 15.6136C14.4821 19.7826 21.9285 28.3826 25.8615 25.4985C24.9176 26.5735 23.0035 28.7497 21.5877 28.7497Z" fill="url(#paint2_radial_835_907)"/>
<path d="M21.5877 28.7497C17.1566 28.7497 11.4669 22.2997 8.87114 18.1045C7.06198 19.835 4.23026 23.3222 5.77722 25.2625C5.54124 25.0003 3.36501 22.2472 3.31257 22.1423C2.29 20.3856 3.83696 17.4752 6.9571 14.5649C5.85588 12.1002 5.41014 10.3435 5.41014 9.00629C5.41014 6.33188 7.09446 5.12361 8.74004 3.78857C7.32418 5.83371 8.84492 9.92397 9.8937 12.1789C14.0102 9.21604 19.8834 6.69896 23.7639 6.69896C25.2322 6.69896 26.3596 6.98737 27.2511 8.11482L29.2176 10.5795C25.8877 7.72152 16.1864 12.4148 11.834 15.6136C14.4821 19.7826 21.9285 28.3826 25.8615 25.4985C24.9176 26.5735 23.0035 28.7497 21.5877 28.7497Z" fill="url(#paint3_radial_835_907)"/>
<path d="M5.85796 25.3414C5.83174 25.3151 5.80552 25.2889 5.7793 25.2627L5.85796 25.3414Z" fill="white"/>
<defs>
<linearGradient id="paint0_linear_835_907" x1="32" y1="-2.64418e-06" x2="1.17052e-06" y2="32" gradientUnits="userSpaceOnUse">
<stop/>
<stop offset="1" stop-color="#1A0052"/>
</linearGradient>
<radialGradient id="paint1_radial_835_907" cx="0" cy="0" r="1" gradientUnits="userSpaceOnUse" gradientTransform="translate(21.811 16.1682) rotate(129.255) scale(14.1639 14.1544)">
<stop stop-color="#092A1E" stop-opacity="0.56"/>
<stop offset="0.245616" stop-color="#093020" stop-opacity="0.74"/>
<stop offset="0.555123" stop-color="#084123"/>
<stop offset="1" stop-color="#028A35"/>
</radialGradient>
<radialGradient id="paint2_radial_835_907" cx="0" cy="0" r="1" gradientUnits="userSpaceOnUse" gradientTransform="translate(13.6691 11.4284) rotate(85.2602) scale(18.8363 22.1902)">
<stop stop-color="#DAFF9D"/>
<stop offset="0.427083" stop-color="#8AEF03"/>
<stop offset="0.846711" stop-color="#04D800"/>
<stop offset="0.994638" stop-color="#00AA42"/>
</radialGradient>
<radialGradient id="paint3_radial_835_907" cx="0" cy="0" r="1" gradientUnits="userSpaceOnUse" gradientTransform="translate(13.6691 11.4284) rotate(85.2602) scale(18.8363 22.1902)">
<stop stop-color="#DAFF9D"/>
<stop offset="0.427083" stop-color="#8AEF03"/>
<stop offset="0.846711" stop-color="#00AA42"/>
<stop offset="0.994638" stop-color="#02983E"/>
</radialGradient>
</defs>
</svg>
