<svg width="125" height="125" fill="none" xmlns="http://www.w3.org/2000/svg"><rect width="125" height="125" rx="16" fill="#fff"/><path d="M14 15h2.595v2.595H14V15ZM16.595 15h2.594v2.595h-2.594V15ZM19.19 15h2.594v2.595h-2.595V15Z" fill="#000"/><path d="M21.784 15h2.594v2.595h-2.594V15ZM24.378 15h2.595v2.595h-2.595V15ZM26.973 15h2.595v2.595h-2.595V15ZM29.568 15h2.594v2.595h-2.594V15ZM37.351 15h2.595v2.595H37.35V15ZM42.54 15h2.595v2.595h-2.594V15ZM47.73 15h2.594v2.595H47.73V15ZM55.514 15h2.594v2.595h-2.594V15Z" fill="#000"/><path d="M58.108 15h2.595v2.595h-2.595V15ZM60.703 15h2.594v2.595h-2.594V15ZM65.892 15h2.595v2.595h-2.595V15ZM71.081 15h2.595v2.595H71.08V15ZM76.27 15h2.595v2.595H76.27V15ZM81.46 15h2.594v2.595h-2.595V15ZM91.838 15h2.594v2.595h-2.594V15ZM94.432 15h2.595v2.595h-2.595V15ZM97.027 15h2.595v2.595h-2.595V15ZM99.622 15h2.594v2.595h-2.594V15ZM102.216 15h2.595v2.595h-2.595V15ZM104.811 15h2.594v2.595h-2.594V15ZM107.405 15H110v2.595h-2.595V15ZM14 17.595h2.595v2.594H14v-2.594ZM29.568 17.595h2.594v2.594h-2.594v-2.594ZM37.351 17.595h2.595v2.594H37.35v-2.594ZM39.946 17.595h2.595v2.594h-2.595v-2.594Z" fill="#000"/><path d="M42.54 17.595h2.595v2.594h-2.594v-2.594ZM47.73 17.595h2.594v2.594H47.73v-2.594ZM50.324 17.595h2.595v2.594h-2.595v-2.594ZM55.514 17.595h2.594v2.594h-2.594v-2.594ZM71.081 17.595h2.595v2.594H71.08v-2.594ZM76.27 17.595h2.595v2.594H76.27v-2.594ZM81.46 17.595h2.594v2.594h-2.595v-2.594ZM86.649 17.595h2.594v2.594H86.65v-2.594ZM91.838 17.595h2.594v2.594h-2.594v-2.594ZM107.405 17.595H110v2.594h-2.595v-2.594ZM14 20.19h2.595v2.594H14v-2.595ZM19.19 20.19h2.594v2.594h-2.595v-2.595Z" fill="#000"/><path d="M21.784 20.19h2.594v2.594h-2.594v-2.595ZM24.378 20.19h2.595v2.594h-2.595v-2.595ZM29.568 20.19h2.594v2.594h-2.594v-2.595ZM34.757 20.19h2.594v2.594h-2.594v-2.595ZM58.108 20.19h2.595v2.594h-2.595v-2.595ZM60.703 20.19h2.594v2.594h-2.594v-2.595ZM71.081 20.19h2.595v2.594H71.08v-2.595ZM78.865 20.19h2.594v2.594h-2.594v-2.595ZM84.054 20.19h2.595v2.594h-2.595v-2.595ZM91.838 20.19h2.594v2.594h-2.594v-2.595ZM97.027 20.19h2.595v2.594h-2.595v-2.595ZM99.622 20.19h2.594v2.594h-2.594v-2.595ZM102.216 20.19h2.595v2.594h-2.595v-2.595ZM107.405 20.19H110v2.594h-2.595v-2.595ZM14 22.784h2.595v2.594H14v-2.594Z" fill="#000"/><path d="M19.19 22.784h2.594v2.594h-2.595v-2.594Z" fill="#000"/><path d="M21.784 22.784h2.594v2.594h-2.594v-2.594ZM24.378 22.784h2.595v2.594h-2.595v-2.594ZM29.568 22.784h2.594v2.594h-2.594v-2.594ZM34.757 22.784h2.594v2.594h-2.594v-2.594ZM39.946 22.784h2.595v2.594h-2.595v-2.594ZM45.135 22.784h2.595v2.594h-2.595v-2.594ZM55.514 22.784h2.594v2.594h-2.594v-2.594ZM63.297 22.784h2.595v2.594h-2.595v-2.594ZM65.892 22.784h2.595v2.594h-2.595v-2.594ZM71.081 22.784h2.595v2.594H71.08v-2.594ZM73.676 22.784h2.594v2.594h-2.594v-2.594ZM76.27 22.784h2.595v2.594H76.27v-2.594ZM86.649 22.784h2.594v2.594H86.65v-2.594ZM91.838 22.784h2.594v2.594h-2.594v-2.594ZM97.027 22.784h2.595v2.594h-2.595v-2.594ZM99.622 22.784h2.594v2.594h-2.594v-2.594ZM102.216 22.784h2.595v2.594h-2.595v-2.594ZM107.405 22.784H110v2.594h-2.595v-2.594ZM14 25.378h2.595v2.595H14v-2.595ZM19.19 25.378h2.594v2.595h-2.595v-2.595Z" fill="#000"/><path d="M21.784 25.378h2.594v2.595h-2.594v-2.595ZM24.378 25.378h2.595v2.595h-2.595v-2.595ZM29.568 25.378h2.594v2.595h-2.594v-2.595ZM37.351 25.378h2.595v2.595H37.35v-2.595ZM39.946 25.378h2.595v2.595h-2.595v-2.595ZM45.135 25.378h2.595v2.595h-2.595v-2.595ZM47.73 25.378h2.594v2.595H47.73v-2.595ZM50.324 25.378h2.595v2.595h-2.595v-2.595ZM52.919 25.378h2.595v2.595h-2.595v-2.595ZM58.108 25.378h2.595v2.595h-2.595v-2.595ZM76.27 25.378h2.595v2.595H76.27v-2.595ZM81.46 25.378h2.594v2.595h-2.595v-2.595ZM91.838 25.378h2.594v2.595h-2.594v-2.595ZM97.027 25.378h2.595v2.595h-2.595v-2.595ZM99.622 25.378h2.594v2.595h-2.594v-2.595ZM102.216 25.378h2.595v2.595h-2.595v-2.595ZM107.405 25.378H110v2.595h-2.595v-2.595ZM14 27.973h2.595v2.595H14v-2.595ZM29.568 27.973h2.594v2.595h-2.594v-2.595ZM45.135 27.973h2.595v2.595h-2.595v-2.595ZM47.73 27.973h2.594v2.595H47.73v-2.595ZM52.919 27.973h2.595v2.595h-2.595v-2.595ZM60.703 27.973h2.594v2.595h-2.594v-2.595ZM68.487 27.973h2.594v2.595h-2.594v-2.595Z" fill="#000"/><path d="M71.081 27.973h2.595v2.595H71.08v-2.595ZM76.27 27.973h2.595v2.595H76.27v-2.595ZM91.838 27.973h2.594v2.595h-2.594v-2.595ZM107.405 27.973H110v2.595h-2.595v-2.595ZM14 30.568h2.595v2.594H14v-2.594ZM16.595 30.568h2.594v2.594h-2.594v-2.594ZM19.19 30.568h2.594v2.594h-2.595v-2.594Z" fill="#000"/><path d="M21.784 30.568h2.594v2.594h-2.594v-2.594ZM24.378 30.568h2.595v2.594h-2.595v-2.594ZM26.973 30.568h2.595v2.594h-2.595v-2.594ZM29.568 30.568h2.594v2.594h-2.594v-2.594ZM34.757 30.568h2.594v2.594h-2.594v-2.594ZM39.946 30.568h2.595v2.594h-2.595v-2.594ZM45.135 30.568h2.595v2.594h-2.595v-2.594ZM50.324 30.568h2.595v2.594h-2.595v-2.594ZM55.514 30.568h2.594v2.594h-2.594v-2.594ZM60.703 30.568h2.594v2.594h-2.594v-2.594ZM65.892 30.568h2.595v2.594h-2.595v-2.594ZM71.081 30.568h2.595v2.594H71.08v-2.594ZM76.27 30.568h2.595v2.594H76.27v-2.594ZM81.46 30.568h2.594v2.594h-2.595v-2.594ZM86.649 30.568h2.594v2.594H86.65v-2.594ZM91.838 30.568h2.594v2.594h-2.594v-2.594ZM94.432 30.568h2.595v2.594h-2.595v-2.594ZM97.027 30.568h2.595v2.594h-2.595v-2.594ZM99.622 30.568h2.594v2.594h-2.594v-2.594ZM102.216 30.568h2.595v2.594h-2.595v-2.594ZM104.811 30.568h2.594v2.594h-2.594v-2.594ZM107.405 30.568H110v2.594h-2.595v-2.594ZM37.351 33.162h2.595v2.595H37.35v-2.595ZM39.946 33.162h2.595v2.595h-2.595v-2.595Z" fill="#000"/><path d="M42.54 33.162h2.595v2.595h-2.594v-2.595ZM47.73 33.162h2.594v2.595H47.73v-2.595ZM52.919 33.162h2.595v2.595h-2.595v-2.595ZM55.514 33.162h2.594v2.595h-2.594v-2.595ZM60.703 33.162h2.594v2.595h-2.594v-2.595ZM65.892 33.162h2.595v2.595h-2.595v-2.595ZM68.487 33.162h2.594v2.595h-2.594v-2.595ZM73.676 33.162h2.594v2.595h-2.594v-2.595ZM78.865 33.162h2.594v2.595h-2.594v-2.595ZM84.054 33.162h2.595v2.595h-2.595v-2.595ZM86.649 33.162h2.594v2.595H86.65v-2.595ZM21.784 35.757h2.594v2.594h-2.594v-2.594ZM24.378 35.757h2.595v2.594h-2.595v-2.594ZM29.568 35.757h2.594v2.594h-2.594v-2.594ZM32.162 35.757h2.595v2.594h-2.595v-2.594ZM39.946 35.757h2.595v2.594h-2.595v-2.594Z" fill="#000"/><path d="M42.54 35.757h2.595v2.594h-2.594v-2.594ZM45.135 35.757h2.595v2.594h-2.595v-2.594ZM47.73 35.757h2.594v2.594H47.73v-2.594ZM50.324 35.757h2.595v2.594h-2.595v-2.594ZM52.919 35.757h2.595v2.594h-2.595v-2.594ZM63.297 35.757h2.595v2.594h-2.595v-2.594ZM65.892 35.757h2.595v2.594h-2.595v-2.594ZM73.676 35.757h2.594v2.594h-2.594v-2.594ZM78.865 35.757h2.594v2.594h-2.594v-2.594ZM86.649 35.757h2.594v2.594H86.65v-2.594ZM99.622 35.757h2.594v2.594h-2.594v-2.594ZM102.216 35.757h2.595v2.594h-2.595v-2.594ZM21.784 38.351h2.594v2.595h-2.594V38.35ZM26.973 38.351h2.595v2.595h-2.595V38.35ZM32.162 38.351h2.595v2.595h-2.595V38.35ZM39.946 38.351h2.595v2.595h-2.595V38.35Z" fill="#000"/><path d="M50.324 38.351h2.595v2.595h-2.595V38.35ZM60.703 38.351h2.594v2.595h-2.594V38.35ZM65.892 38.351h2.595v2.595h-2.595V38.35ZM73.676 38.351h2.594v2.595h-2.594V38.35ZM76.27 38.351h2.595v2.595H76.27V38.35ZM78.865 38.351h2.594v2.595h-2.594V38.35ZM89.243 38.351h2.595v2.595h-2.595V38.35ZM94.432 38.351h2.595v2.595h-2.595V38.35ZM97.027 38.351h2.595v2.595h-2.595V38.35ZM99.622 38.351h2.594v2.595h-2.594V38.35ZM102.216 38.351h2.595v2.595h-2.595V38.35ZM14 40.946h2.595v2.595H14v-2.595ZM19.19 40.946h2.594v2.595h-2.595v-2.595ZM24.378 40.946h2.595v2.595h-2.595v-2.595ZM26.973 40.946h2.595v2.595h-2.595v-2.595ZM29.568 40.946h2.594v2.595h-2.594v-2.595ZM42.54 40.946h2.595v2.595h-2.594v-2.595ZM52.919 40.946h2.595v2.595h-2.595v-2.595ZM60.703 40.946h2.594v2.595h-2.594v-2.595ZM68.487 40.946h2.594v2.595h-2.594v-2.595ZM73.676 40.946h2.594v2.595h-2.594v-2.595ZM76.27 40.946h2.595v2.595H76.27v-2.595ZM78.865 40.946h2.594v2.595h-2.594v-2.595ZM89.243 40.946h2.595v2.595h-2.595v-2.595ZM91.838 40.946h2.594v2.595h-2.594v-2.595ZM99.622 40.946h2.594v2.595h-2.594v-2.595ZM104.811 40.946h2.594v2.595h-2.594v-2.595ZM107.405 40.946H110v2.595h-2.595v-2.595ZM16.595 43.54h2.594v2.595h-2.594v-2.594Z" fill="#000"/><path d="M21.784 43.54h2.594v2.595h-2.594v-2.594ZM34.757 43.54h2.594v2.595h-2.594v-2.594ZM39.946 43.54h2.595v2.595h-2.595v-2.594ZM45.135 43.54h2.595v2.595h-2.595v-2.594ZM55.514 43.54h2.594v2.595h-2.594v-2.594ZM68.487 43.54h2.594v2.595h-2.594v-2.594ZM81.46 43.54h2.594v2.595h-2.595v-2.594ZM84.054 43.54h2.595v2.595h-2.595v-2.594ZM89.243 43.54h2.595v2.595h-2.595v-2.594ZM91.838 43.54h2.594v2.595h-2.594v-2.594ZM97.027 43.54h2.595v2.595h-2.595v-2.594ZM102.216 43.54h2.595v2.595h-2.595v-2.594ZM21.784 46.135h2.594v2.595h-2.594v-2.595ZM26.973 46.135h2.595v2.595h-2.595v-2.595ZM29.568 46.135h2.594v2.595h-2.594v-2.595ZM34.757 46.135h2.594v2.595h-2.594v-2.595Z" fill="#000"/><path d="M37.351 46.135h2.595v2.595H37.35v-2.595ZM45.135 46.135h2.595v2.595h-2.595v-2.595ZM50.324 46.135h2.595v2.595h-2.595v-2.595ZM52.919 46.135h2.595v2.595h-2.595v-2.595ZM55.514 46.135h2.594v2.595h-2.594v-2.595Z" fill="#000"/><path d="M58.108 46.135h2.595v2.595h-2.595v-2.595ZM65.892 46.135h2.595v2.595h-2.595v-2.595ZM86.649 46.135h2.594v2.595H86.65v-2.595ZM91.838 46.135h2.594v2.595h-2.594v-2.595ZM94.432 46.135h2.595v2.595h-2.595v-2.595ZM104.811 46.135h2.594v2.595h-2.594v-2.595ZM16.595 48.73h2.594v2.594h-2.594V48.73ZM32.162 48.73h2.595v2.594h-2.595V48.73ZM34.757 48.73h2.594v2.594h-2.594V48.73Z" fill="#000"/><path d="M37.351 48.73h2.595v2.594H37.35V48.73ZM39.946 48.73h2.595v2.594h-2.595V48.73ZM45.135 48.73h2.595v2.594h-2.595V48.73ZM76.27 48.73h2.595v2.594H76.27V48.73ZM81.46 48.73h2.594v2.594h-2.595V48.73ZM84.054 48.73h2.595v2.594h-2.595V48.73ZM86.649 48.73h2.594v2.594H86.65V48.73ZM89.243 48.73h2.595v2.594h-2.595V48.73ZM94.432 48.73h2.595v2.594h-2.595V48.73ZM97.027 48.73h2.595v2.594h-2.595V48.73ZM102.216 48.73h2.595v2.594h-2.595V48.73ZM14 51.324h2.595v2.595H14v-2.595ZM19.19 51.324h2.594v2.595h-2.595v-2.595ZM24.378 51.324h2.595v2.595h-2.595v-2.595ZM26.973 51.324h2.595v2.595h-2.595v-2.595ZM29.568 51.324h2.594v2.595h-2.594v-2.595ZM34.757 51.324h2.594v2.595h-2.594v-2.595ZM39.946 51.324h2.595v2.595h-2.595v-2.595Z" fill="#000"/><path d="M42.54 51.324h2.595v2.595h-2.594v-2.595ZM45.135 51.324h2.595v2.595h-2.595v-2.595ZM76.27 51.324h2.595v2.595H76.27v-2.595ZM78.865 51.324h2.594v2.595h-2.594v-2.595ZM81.46 51.324h2.594v2.595h-2.595v-2.595ZM84.054 51.324h2.595v2.595h-2.595v-2.595ZM89.243 51.324h2.595v2.595h-2.595v-2.595ZM99.622 51.324h2.594v2.595h-2.594v-2.595ZM102.216 51.324h2.595v2.595h-2.595v-2.595ZM104.811 51.324h2.594v2.595h-2.594v-2.595ZM107.405 51.324H110v2.595h-2.595v-2.595ZM21.784 53.919h2.594v2.595h-2.594v-2.595ZM24.378 53.919h2.595v2.595h-2.595v-2.595ZM34.757 53.919h2.594v2.595h-2.594v-2.595ZM45.135 53.919h2.595v2.595h-2.595v-2.595ZM76.27 53.919h2.595v2.595H76.27v-2.595ZM81.46 53.919h2.594v2.595h-2.595v-2.595ZM86.649 53.919h2.594v2.595H86.65v-2.595ZM94.432 53.919h2.595v2.595h-2.595v-2.595ZM97.027 53.919h2.595v2.595h-2.595v-2.595ZM99.622 53.919h2.594v2.595h-2.594v-2.595ZM102.216 53.919h2.595v2.595h-2.595v-2.595ZM107.405 53.919H110v2.595h-2.595v-2.595ZM16.595 56.514h2.594v2.594h-2.594v-2.594ZM19.19 56.514h2.594v2.594h-2.595v-2.594ZM24.378 56.514h2.595v2.594h-2.595v-2.594ZM29.568 56.514h2.594v2.594h-2.594v-2.594ZM34.757 56.514h2.594v2.594h-2.594v-2.594ZM42.54 56.514h2.595v2.594h-2.594v-2.594ZM76.27 56.514h2.595v2.594H76.27v-2.594ZM78.865 56.514h2.594v2.594h-2.594v-2.594ZM84.054 56.514h2.595v2.594h-2.595v-2.594ZM91.838 56.514h2.594v2.594h-2.594v-2.594ZM102.216 56.514h2.595v2.594h-2.595v-2.594ZM107.405 56.514H110v2.594h-2.595v-2.594ZM26.973 59.108h2.595v2.595h-2.595v-2.595Z" fill="#000"/><path d="M37.351 59.108h2.595v2.595H37.35v-2.595ZM39.946 59.108h2.595v2.595h-2.595v-2.595Z" fill="#000"/><path d="M42.54 59.108h2.595v2.595h-2.594v-2.595ZM45.135 59.108h2.595v2.595h-2.595v-2.595ZM84.054 59.108h2.595v2.595h-2.595v-2.595ZM89.243 59.108h2.595v2.595h-2.595v-2.595ZM102.216 59.108h2.595v2.595h-2.595v-2.595ZM104.811 59.108h2.594v2.595h-2.594v-2.595ZM16.595 61.703h2.594v2.594h-2.594v-2.594ZM21.784 61.703h2.594v2.594h-2.594v-2.594ZM24.378 61.703h2.595v2.594h-2.595v-2.594ZM26.973 61.703h2.595v2.594h-2.595v-2.594ZM29.568 61.703h2.594v2.594h-2.594v-2.594ZM39.946 61.703h2.595v2.594h-2.595v-2.594ZM78.865 61.703h2.594v2.594h-2.594v-2.594ZM81.46 61.703h2.594v2.594h-2.595v-2.594ZM84.054 61.703h2.595v2.594h-2.595v-2.594ZM86.649 61.703h2.594v2.594H86.65v-2.594ZM97.027 61.703h2.595v2.594h-2.595v-2.594ZM102.216 61.703h2.595v2.594h-2.595v-2.594ZM107.405 61.703H110v2.594h-2.595v-2.594ZM14 64.297h2.595v2.595H14v-2.595ZM16.595 64.297h2.594v2.595h-2.594v-2.595ZM24.378 64.297h2.595v2.595h-2.595v-2.595ZM32.162 64.297h2.595v2.595h-2.595v-2.595ZM42.54 64.297h2.595v2.595h-2.594v-2.595ZM78.865 64.297h2.594v2.595h-2.594v-2.595ZM84.054 64.297h2.595v2.595h-2.595v-2.595ZM86.649 64.297h2.594v2.595H86.65v-2.595ZM89.243 64.297h2.595v2.595h-2.595v-2.595ZM94.432 64.297h2.595v2.595h-2.595v-2.595ZM97.027 64.297h2.595v2.595h-2.595v-2.595ZM99.622 64.297h2.594v2.595h-2.594v-2.595ZM104.811 64.297h2.594v2.595h-2.594v-2.595ZM16.595 66.892h2.594v2.595h-2.594v-2.595ZM19.19 66.892h2.594v2.595h-2.595v-2.595Z" fill="#000"/><path d="M21.784 66.892h2.594v2.595h-2.594v-2.595ZM26.973 66.892h2.595v2.595h-2.595v-2.595ZM29.568 66.892h2.594v2.595h-2.594v-2.595ZM32.162 66.892h2.595v2.595h-2.595v-2.595ZM34.757 66.892h2.594v2.595h-2.594v-2.595ZM76.27 66.892h2.595v2.595H76.27v-2.595ZM86.649 66.892h2.594v2.595H86.65v-2.595ZM91.838 66.892h2.594v2.595h-2.594v-2.595ZM97.027 66.892h2.595v2.595h-2.595v-2.595ZM99.622 66.892h2.594v2.595h-2.594v-2.595ZM104.811 66.892h2.594v2.595h-2.594v-2.595ZM107.405 66.892H110v2.595h-2.595v-2.595ZM14 69.487h2.595v2.594H14v-2.594ZM19.19 69.487h2.594v2.594h-2.595v-2.594Z" fill="#000"/><path d="M21.784 69.487h2.594v2.594h-2.594v-2.594ZM32.162 69.487h2.595v2.594h-2.595v-2.594ZM39.946 69.487h2.595v2.594h-2.595v-2.594Z" fill="#000"/><path d="M42.54 69.487h2.595v2.594h-2.594v-2.594ZM78.865 69.487h2.594v2.594h-2.594v-2.594ZM81.46 69.487h2.594v2.594h-2.595v-2.594ZM84.054 69.487h2.595v2.594h-2.595v-2.594ZM86.649 69.487h2.594v2.594H86.65v-2.594ZM89.243 69.487h2.595v2.594h-2.595v-2.594ZM94.432 69.487h2.595v2.594h-2.595v-2.594ZM97.027 69.487h2.595v2.594h-2.595v-2.594ZM99.622 69.487h2.594v2.594h-2.594v-2.594ZM104.811 69.487h2.594v2.594h-2.594v-2.594ZM19.19 72.081h2.594v2.595h-2.595V72.08ZM24.378 72.081h2.595v2.595h-2.595V72.08ZM29.568 72.081h2.594v2.595h-2.594V72.08ZM32.162 72.081h2.595v2.595h-2.595V72.08ZM37.351 72.081h2.595v2.595H37.35V72.08ZM39.946 72.081h2.595v2.595h-2.595V72.08Z" fill="#000"/><path d="M42.54 72.081h2.595v2.595h-2.594V72.08ZM45.135 72.081h2.595v2.595h-2.595V72.08ZM76.27 72.081h2.595v2.595H76.27V72.08ZM78.865 72.081h2.594v2.595h-2.594V72.08ZM84.054 72.081h2.595v2.595h-2.595V72.08ZM89.243 72.081h2.595v2.595h-2.595V72.08ZM97.027 72.081h2.595v2.595h-2.595V72.08ZM99.622 72.081h2.594v2.595h-2.594V72.08ZM102.216 72.081h2.595v2.595h-2.595V72.08ZM107.405 72.081H110v2.595h-2.595V72.08ZM26.973 74.676h2.595v2.594h-2.595v-2.594ZM34.757 74.676h2.594v2.594h-2.594v-2.594Z" fill="#000"/><path d="M37.351 74.676h2.595v2.594H37.35v-2.594ZM39.946 74.676h2.595v2.594h-2.595v-2.594ZM76.27 74.676h2.595v2.594H76.27v-2.594ZM78.865 74.676h2.594v2.594h-2.594v-2.594ZM84.054 74.676h2.595v2.594h-2.595v-2.594ZM86.649 74.676h2.594v2.594H86.65v-2.594ZM89.243 74.676h2.595v2.594h-2.595v-2.594ZM91.838 74.676h2.594v2.594h-2.594v-2.594ZM94.432 74.676h2.595v2.594h-2.595v-2.594ZM99.622 74.676h2.594v2.594h-2.594v-2.594ZM102.216 74.676h2.595v2.594h-2.595v-2.594ZM104.811 74.676h2.594v2.594h-2.594v-2.594ZM14 77.27h2.595v2.595H14V77.27ZM16.595 77.27h2.594v2.595h-2.594V77.27ZM21.784 77.27h2.594v2.595h-2.594V77.27ZM29.568 77.27h2.594v2.595h-2.594V77.27ZM32.162 77.27h2.595v2.595h-2.595V77.27ZM34.757 77.27h2.594v2.595h-2.594V77.27Z" fill="#000"/><path d="M37.351 77.27h2.595v2.595H37.35V77.27ZM47.73 77.27h2.594v2.595H47.73V77.27ZM50.324 77.27h2.595v2.595h-2.595V77.27ZM58.108 77.27h2.595v2.595h-2.595V77.27ZM60.703 77.27h2.594v2.595h-2.594V77.27Z" fill="#000"/><path d="M63.297 77.27h2.595v2.595h-2.595V77.27ZM65.892 77.27h2.595v2.595h-2.595V77.27ZM73.676 77.27h2.594v2.595h-2.594V77.27ZM76.27 77.27h2.595v2.595H76.27V77.27ZM78.865 77.27h2.594v2.595h-2.594V77.27ZM86.649 77.27h2.594v2.595H86.65V77.27ZM89.243 77.27h2.595v2.595h-2.595V77.27ZM91.838 77.27h2.594v2.595h-2.594V77.27ZM94.432 77.27h2.595v2.595h-2.595V77.27ZM99.622 77.27h2.594v2.595h-2.594V77.27ZM104.811 77.27h2.594v2.595h-2.594V77.27ZM14 79.865h2.595v2.594H14v-2.594ZM16.595 79.865h2.594v2.594h-2.594v-2.594ZM19.19 79.865h2.594v2.594h-2.595v-2.594ZM24.378 79.865h2.595v2.594h-2.595v-2.594ZM26.973 79.865h2.595v2.594h-2.595v-2.594ZM34.757 79.865h2.594v2.594h-2.594v-2.594ZM39.946 79.865h2.595v2.594h-2.595v-2.594Z" fill="#000"/><path d="M42.54 79.865h2.595v2.594h-2.594v-2.594ZM47.73 79.865h2.594v2.594H47.73v-2.594ZM50.324 79.865h2.595v2.594h-2.595v-2.594ZM65.892 79.865h2.595v2.594h-2.595v-2.594ZM81.46 79.865h2.594v2.594h-2.595v-2.594ZM89.243 79.865h2.595v2.594h-2.595v-2.594ZM97.027 79.865h2.595v2.594h-2.595v-2.594ZM99.622 79.865h2.594v2.594h-2.594v-2.594ZM14 82.46h2.595v2.594H14v-2.595ZM16.595 82.46h2.594v2.594h-2.594v-2.595ZM19.19 82.46h2.594v2.594h-2.595v-2.595ZM24.378 82.46h2.595v2.594h-2.595v-2.595ZM26.973 82.46h2.595v2.594h-2.595v-2.595ZM29.568 82.46h2.594v2.594h-2.594v-2.595ZM34.757 82.46h2.594v2.594h-2.594v-2.595ZM39.946 82.46h2.595v2.594h-2.595v-2.595ZM47.73 82.46h2.594v2.594H47.73v-2.595ZM55.514 82.46h2.594v2.594h-2.594v-2.595ZM68.487 82.46h2.594v2.594h-2.594v-2.595Z" fill="#000"/><path d="M71.081 82.46h2.595v2.594H71.08v-2.595ZM73.676 82.46h2.594v2.594h-2.594v-2.595ZM76.27 82.46h2.595v2.594H76.27v-2.595ZM81.46 82.46h2.594v2.594h-2.595v-2.595ZM84.054 82.46h2.595v2.594h-2.595v-2.595ZM86.649 82.46h2.594v2.594H86.65v-2.595ZM91.838 82.46h2.594v2.594h-2.594v-2.595ZM94.432 82.46h2.595v2.594h-2.595v-2.595ZM97.027 82.46h2.595v2.594h-2.595v-2.595ZM104.811 82.46h2.594v2.594h-2.594v-2.595ZM107.405 82.46H110v2.594h-2.595v-2.595ZM14 85.054h2.595v2.595H14v-2.595ZM19.19 85.054h2.594v2.595h-2.595v-2.595Z" fill="#000"/><path d="M21.784 85.054h2.594v2.595h-2.594v-2.595ZM24.378 85.054h2.595v2.595h-2.595v-2.595ZM26.973 85.054h2.595v2.595h-2.595v-2.595ZM32.162 85.054h2.595v2.595h-2.595v-2.595ZM34.757 85.054h2.594v2.595h-2.594v-2.595Z" fill="#000"/><path d="M37.351 85.054h2.595v2.595H37.35v-2.595ZM42.54 85.054h2.595v2.595h-2.594v-2.595ZM47.73 85.054h2.594v2.595H47.73v-2.595ZM50.324 85.054h2.595v2.595h-2.595v-2.595ZM63.297 85.054h2.595v2.595h-2.595v-2.595ZM68.487 85.054h2.594v2.595h-2.594v-2.595ZM73.676 85.054h2.594v2.595h-2.594v-2.595ZM86.649 85.054h2.594v2.595H86.65v-2.595ZM89.243 85.054h2.595v2.595h-2.595v-2.595ZM94.432 85.054h2.595v2.595h-2.595v-2.595ZM97.027 85.054h2.595v2.595h-2.595v-2.595ZM99.622 85.054h2.594v2.595h-2.594v-2.595ZM102.216 85.054h2.595v2.595h-2.595v-2.595ZM14 87.649h2.595v2.594H14V87.65ZM21.784 87.649h2.594v2.594h-2.594V87.65ZM29.568 87.649h2.594v2.594h-2.594V87.65ZM37.351 87.649h2.595v2.594H37.35V87.65ZM50.324 87.649h2.595v2.594h-2.595V87.65ZM58.108 87.649h2.595v2.594h-2.595V87.65ZM60.703 87.649h2.594v2.594h-2.594V87.65Z" fill="#000"/><path d="M63.297 87.649h2.595v2.594h-2.595V87.65ZM65.892 87.649h2.595v2.594h-2.595V87.65ZM68.487 87.649h2.594v2.594h-2.594V87.65Z" fill="#000"/><path d="M71.081 87.649h2.595v2.594H71.08V87.65ZM76.27 87.649h2.595v2.594H76.27V87.65ZM78.865 87.649h2.594v2.594h-2.594V87.65ZM86.649 87.649h2.594v2.594H86.65V87.65ZM89.243 87.649h2.595v2.594h-2.595V87.65ZM91.838 87.649h2.594v2.594h-2.594V87.65ZM94.432 87.649h2.595v2.594h-2.595V87.65ZM97.027 87.649h2.595v2.594h-2.595V87.65ZM102.216 87.649h2.595v2.594h-2.595V87.65ZM34.757 90.243h2.594v2.595h-2.594v-2.595ZM39.946 90.243h2.595v2.595h-2.595v-2.595Z" fill="#000"/><path d="M42.54 90.243h2.595v2.595h-2.594v-2.595ZM45.135 90.243h2.595v2.595h-2.595v-2.595ZM52.919 90.243h2.595v2.595h-2.595v-2.595ZM55.514 90.243h2.594v2.595h-2.594v-2.595ZM60.703 90.243h2.594v2.595h-2.594v-2.595Z" fill="#000"/><path d="M63.297 90.243h2.595v2.595h-2.595v-2.595ZM65.892 90.243h2.595v2.595h-2.595v-2.595ZM71.081 90.243h2.595v2.595H71.08v-2.595ZM78.865 90.243h2.594v2.595h-2.594v-2.595ZM84.054 90.243h2.595v2.595h-2.595v-2.595ZM86.649 90.243h2.594v2.595H86.65v-2.595ZM97.027 90.243h2.595v2.595h-2.595v-2.595ZM99.622 90.243h2.594v2.595h-2.594v-2.595ZM102.216 90.243h2.595v2.595h-2.595v-2.595ZM14 92.838h2.595v2.594H14v-2.594ZM16.595 92.838h2.594v2.594h-2.594v-2.594ZM19.19 92.838h2.594v2.594h-2.595v-2.594Z" fill="#000"/><path d="M21.784 92.838h2.594v2.594h-2.594v-2.594ZM24.378 92.838h2.595v2.594h-2.595v-2.594ZM26.973 92.838h2.595v2.594h-2.595v-2.594ZM29.568 92.838h2.594v2.594h-2.594v-2.594ZM34.757 92.838h2.594v2.594h-2.594v-2.594Z" fill="#000"/><path d="M37.351 92.838h2.595v2.594H37.35v-2.594ZM42.54 92.838h2.595v2.594h-2.594v-2.594ZM45.135 92.838h2.595v2.594h-2.595v-2.594ZM50.324 92.838h2.595v2.594h-2.595v-2.594ZM52.919 92.838h2.595v2.594h-2.595v-2.594ZM60.703 92.838h2.594v2.594h-2.594v-2.594Z" fill="#000"/><path d="M63.297 92.838h2.595v2.594h-2.595v-2.594ZM65.892 92.838h2.595v2.594h-2.595v-2.594ZM73.676 92.838h2.594v2.594h-2.594v-2.594ZM76.27 92.838h2.595v2.594H76.27v-2.594ZM78.865 92.838h2.594v2.594h-2.594v-2.594ZM81.46 92.838h2.594v2.594h-2.595v-2.594ZM86.649 92.838h2.594v2.594H86.65v-2.594ZM91.838 92.838h2.594v2.594h-2.594v-2.594ZM97.027 92.838h2.595v2.594h-2.595v-2.594ZM99.622 92.838h2.594v2.594h-2.594v-2.594ZM102.216 92.838h2.595v2.594h-2.595v-2.594ZM107.405 92.838H110v2.594h-2.595v-2.594ZM14 95.432h2.595v2.595H14v-2.595ZM29.568 95.432h2.594v2.595h-2.594v-2.595ZM39.946 95.432h2.595v2.595h-2.595v-2.595ZM47.73 95.432h2.594v2.595H47.73v-2.595ZM55.514 95.432h2.594v2.595h-2.594v-2.595ZM65.892 95.432h2.595v2.595h-2.595v-2.595ZM71.081 95.432h2.595v2.595H71.08v-2.595ZM73.676 95.432h2.594v2.595h-2.594v-2.595ZM78.865 95.432h2.594v2.595h-2.594v-2.595ZM84.054 95.432h2.595v2.595h-2.595v-2.595ZM86.649 95.432h2.594v2.595H86.65v-2.595ZM97.027 95.432h2.595v2.595h-2.595v-2.595ZM99.622 95.432h2.594v2.595h-2.594v-2.595ZM104.811 95.432h2.594v2.595h-2.594v-2.595ZM14 98.027h2.595v2.595H14v-2.595ZM19.19 98.027h2.594v2.595h-2.595v-2.595Z" fill="#000"/><path d="M21.784 98.027h2.594v2.595h-2.594v-2.595ZM24.378 98.027h2.595v2.595h-2.595v-2.595ZM29.568 98.027h2.594v2.595h-2.594v-2.595ZM34.757 98.027h2.594v2.595h-2.594v-2.595ZM39.946 98.027h2.595v2.595h-2.595v-2.595Z" fill="#000"/><path d="M42.54 98.027h2.595v2.595h-2.594v-2.595ZM45.135 98.027h2.595v2.595h-2.595v-2.595ZM47.73 98.027h2.594v2.595H47.73v-2.595ZM52.919 98.027h2.595v2.595h-2.595v-2.595ZM55.514 98.027h2.594v2.595h-2.594v-2.595ZM60.703 98.027h2.594v2.595h-2.594v-2.595Z" fill="#000"/><path d="M63.297 98.027h2.595v2.595h-2.595v-2.595ZM68.487 98.027h2.594v2.595h-2.594v-2.595ZM81.46 98.027h2.594v2.595h-2.595v-2.595ZM84.054 98.027h2.595v2.595h-2.595v-2.595ZM86.649 98.027h2.594v2.595H86.65v-2.595ZM89.243 98.027h2.595v2.595h-2.595v-2.595ZM91.838 98.027h2.594v2.595h-2.594v-2.595ZM94.432 98.027h2.595v2.595h-2.595v-2.595ZM97.027 98.027h2.595v2.595h-2.595v-2.595ZM107.405 98.027H110v2.595h-2.595v-2.595ZM14 100.622h2.595v2.594H14v-2.594ZM19.19 100.622h2.594v2.594h-2.595v-2.594Z" fill="#000"/><path d="M21.784 100.622h2.594v2.594h-2.594v-2.594ZM24.378 100.622h2.595v2.594h-2.595v-2.594ZM29.568 100.622h2.594v2.594h-2.594v-2.594ZM34.757 100.622h2.594v2.594h-2.594v-2.594ZM39.946 100.622h2.595v2.594h-2.595v-2.594Z" fill="#000"/><path d="M42.54 100.622h2.595v2.594h-2.594v-2.594ZM45.135 100.622h2.595v2.594h-2.595v-2.594ZM50.324 100.622h2.595v2.594h-2.595v-2.594ZM55.514 100.622h2.594v2.594h-2.594v-2.594Z" fill="#000"/><path d="M58.108 100.622h2.595v2.594h-2.595v-2.594ZM68.487 100.622h2.594v2.594h-2.594v-2.594ZM76.27 100.622h2.595v2.594H76.27v-2.594ZM78.865 100.622h2.594v2.594h-2.594v-2.594ZM81.46 100.622h2.594v2.594h-2.595v-2.594ZM86.649 100.622h2.594v2.594H86.65v-2.594ZM91.838 100.622h2.594v2.594h-2.594v-2.594ZM99.622 100.622h2.594v2.594h-2.594v-2.594ZM14 103.216h2.595v2.595H14v-2.595ZM19.19 103.216h2.594v2.595h-2.595v-2.595Z" fill="#000"/><path d="M21.784 103.216h2.594v2.595h-2.594v-2.595ZM24.378 103.216h2.595v2.595h-2.595v-2.595ZM29.568 103.216h2.594v2.595h-2.594v-2.595ZM37.351 103.216h2.595v2.595H37.35v-2.595ZM42.54 103.216h2.595v2.595h-2.594v-2.595ZM47.73 103.216h2.594v2.595H47.73v-2.595ZM52.919 103.216h2.595v2.595h-2.595v-2.595ZM58.108 103.216h2.595v2.595h-2.595v-2.595ZM60.703 103.216h2.594v2.595h-2.594v-2.595Z" fill="#000"/><path d="M63.297 103.216h2.595v2.595h-2.595v-2.595ZM65.892 103.216h2.595v2.595h-2.595v-2.595ZM73.676 103.216h2.594v2.595h-2.594v-2.595ZM78.865 103.216h2.594v2.595h-2.594v-2.595ZM84.054 103.216h2.595v2.595h-2.595v-2.595ZM94.432 103.216h2.595v2.595h-2.595v-2.595ZM97.027 103.216h2.595v2.595h-2.595v-2.595ZM104.811 103.216h2.594v2.595h-2.594v-2.595ZM107.405 103.216H110v2.595h-2.595v-2.595ZM14 105.811h2.595v2.594H14v-2.594ZM29.568 105.811h2.594v2.594h-2.594v-2.594ZM42.54 105.811h2.595v2.594h-2.594v-2.594ZM45.135 105.811h2.595v2.594h-2.595v-2.594ZM52.919 105.811h2.595v2.594h-2.595v-2.594ZM58.108 105.811h2.595v2.594h-2.595v-2.594ZM60.703 105.811h2.594v2.594h-2.594v-2.594ZM73.676 105.811h2.594v2.594h-2.594v-2.594ZM76.27 105.811h2.595v2.594H76.27v-2.594ZM81.46 105.811h2.594v2.594h-2.595v-2.594ZM94.432 105.811h2.595v2.594h-2.595v-2.594ZM99.622 105.811h2.594v2.594h-2.594v-2.594ZM102.216 105.811h2.595v2.594h-2.595v-2.594ZM104.811 105.811h2.594v2.594h-2.594v-2.594ZM107.405 105.811H110v2.594h-2.595v-2.594ZM14 108.405h2.595V111H14v-2.595ZM16.595 108.405h2.594V111h-2.594v-2.595ZM19.19 108.405h2.594V111h-2.595v-2.595Z" fill="#000"/><path d="M21.784 108.405h2.594V111h-2.594v-2.595ZM24.378 108.405h2.595V111h-2.595v-2.595ZM26.973 108.405h2.595V111h-2.595v-2.595ZM29.568 108.405h2.594V111h-2.594v-2.595ZM45.135 108.405h2.595V111h-2.595v-2.595ZM47.73 108.405h2.594V111H47.73v-2.595ZM65.892 108.405h2.595V111h-2.595v-2.595ZM71.081 108.405h2.595V111H71.08v-2.595ZM73.676 108.405h2.594V111h-2.594v-2.595ZM81.46 108.405h2.594V111h-2.595v-2.595ZM86.649 108.405h2.594V111H86.65v-2.595ZM99.622 108.405h2.594V111h-2.594v-2.595ZM107.405 108.405H110V111h-2.595v-2.595Z" fill="#000"/><path d="M16.595 15H14v2.595M16.595 15v2.595m0-2.595h2.594m-2.594 2.595H14m2.595 0h2.594m-2.594 0v2.594M14 17.595v2.594M19.19 15v2.595m0-2.595h2.594m-2.595 2.595h2.595m0-2.595v2.595m0-2.595h2.594m-2.594 2.595h2.594m0-2.595v2.595m0-2.595h2.595m-2.595 2.595h2.595m0-2.595v2.595m0-2.595h2.595m-2.595 2.595h2.595m0-2.595v2.595m0-2.595h2.594v2.595m-2.594 0h2.594m-2.594 0v2.594m2.594-2.594v2.594m7.784-2.594V15H37.35v2.595m2.595 0H37.35m2.595 0v2.594m0-2.594h2.595m-5.19 0v2.594m7.784-2.594V15h-2.594v2.595m2.594 0h-2.594m2.594 0v2.594h-2.594m0-2.594v2.594m7.783-2.594V15H47.73v2.595m2.594 0H47.73m2.594 0v2.594m0-2.594h2.595v2.594h-2.595m-2.594-2.594v2.594h2.594M58.108 15h-2.594v2.595M58.108 15v2.595m0-2.595h2.595m-2.595 2.595h-2.594m2.594 0h2.595m-2.595 0v2.594m-2.594-2.594v2.594h2.594M60.703 15v2.595m0-2.595h2.594v2.595h-2.594m12.973 0V15H71.08v2.595m2.595 0H71.08m2.595 0v2.594m-2.595-2.594v2.594m7.784-2.594V15H76.27v2.595m2.595 0H76.27m2.595 0v2.594m-2.595-2.594v2.594h2.595m5.189-2.594V15H81.46v2.595m2.594 0H81.46m2.594 0v2.594m-2.594-2.594v2.594M94.431 15h-2.594v2.595M94.432 15v2.595m0-2.595h2.595m-2.595 2.595h-2.594m2.594 0h2.595m-2.595 0v2.594m-2.594-2.594v2.594M97.027 15v2.595m0-2.595h2.595m-2.595 2.595h2.595m0-2.595v2.595m0-2.595h2.594m-2.594 2.595h2.594m0-2.595v2.595m0-2.595h2.595m-2.595 2.595h2.595m0-2.595v2.595m0-2.595h2.594m-2.594 2.595h2.594m0-2.595v2.595m0-2.595H110v2.595m-2.595 0H110m-2.595 0v2.594M110 17.595v2.594m-93.405 0H14m2.595 0v2.595M14 20.189v2.595m18.162-2.595h-2.594m2.594 0v2.595m-2.594-2.595v2.595m10.378-2.595H37.35m2.595 0h2.595m-5.19 0h-2.594v2.595m2.594-2.595v2.595m20.757-2.595h2.595m-2.595 0v2.595m15.568-2.595H71.08m2.595 0v2.595m-2.595-2.595v2.595m7.784-2.595h2.595m-2.595 0v2.595m5.189-2.595H81.46m2.594 0h2.595m-2.595 0v2.595h2.595m-5.19-2.595v2.595h-2.594m7.784-2.595h2.594v-2.594H86.65v2.594Zm0 0v2.595m7.783-2.595h-2.594m2.594 0v2.595m-2.594-2.595v2.595M110 20.189h-2.595m2.595 0v2.595m-2.595-2.595v2.595m-90.81 0H14m2.595 0v2.594M14 22.784v2.594m7.784-5.189h-2.595v2.595m2.595-2.595v2.595m0-2.595h2.594m-2.594 2.595h-2.595m2.595 0h2.594m-2.594 0v2.594m-2.595-2.594v2.594m5.19-5.189v2.595m0-2.595h2.594v2.595m-2.595 0h2.595m-2.595 0v2.594m2.595-2.594v2.594m5.19-2.594h-2.595m2.594 0v2.594m-2.594-2.594v2.594m7.783-2.594h-2.594m2.594 0v2.594m-2.594-2.594v2.594h2.594m23.352-5.189v2.595m0-2.595h2.594v2.595m-2.594 0h-2.595m2.595 0h2.594m-5.189 0h-2.594v2.594m2.594-2.594v2.594m5.19-2.594h2.594m-2.595 0v2.594h2.595m7.784-2.594H71.08m2.595 0v2.594m0-2.594h2.594m-5.189 0v2.594h2.595m5.189-2.594H76.27m2.595 0v2.594m7.784-2.594h2.594v2.594H86.65v-2.594Zm7.783 0h-2.594m2.594 0v2.594m-2.594-2.594v2.594m7.784-5.189h-2.595v2.595m2.595-2.595v2.595m0-2.595h2.594m-2.594 2.595h-2.595m2.595 0h2.594m-2.594 0v2.594m-2.595-2.594v2.594m5.189-5.189v2.595m0-2.595h2.595v2.595m-2.595 0h2.595m-2.595 0v2.594m2.595-2.594v2.594M110 22.784h-2.595m2.595 0v2.594m-2.595-2.594v2.594m-90.81 0H14m2.595 0v2.595M14 25.378v2.595m7.784-2.595h-2.595m2.595 0h2.594m-2.594 0v2.595m-2.595-2.595v2.595h2.595m2.594-2.595h2.595m-2.595 0v2.595m2.595-2.595v2.595h-2.595m7.784-2.595h-2.594m2.594 0v2.595m-2.594-2.595v2.595m7.783-2.595h2.595m-2.595 0v2.595h2.595m2.595-2.595v-2.594h-2.595v2.594m2.595 0h-2.595m2.595 0v2.595h-2.595m0-2.595v2.595m7.784-2.595v-2.594h-2.595v2.594m2.595 0h-2.595m2.595 0v2.595m0-2.595h2.594m-5.189 0v2.595m12.973-2.595h-2.594m2.594 0h2.595v2.595m-2.595-2.595v2.595h2.595m-5.19-2.595H52.92m2.595 0v2.595m10.378-5.19v2.595m0-2.594h2.595v2.594h-2.595m7.784 0h2.594m0-2.594v2.594m0 0h2.595m-2.595 0v2.595m2.595-2.595v2.595m15.567-2.595h-2.594m2.594 0v2.595m-2.594-2.595v2.595m7.784-2.595h-2.595m2.595 0h2.594m-2.594 0v2.595m-2.595-2.595v2.595h2.595m2.594-2.595h2.595m-2.595 0v2.595m2.595-2.595v2.595h-2.595M110 25.378h-2.595m2.595 0v2.595m-2.595-2.595v2.595m-90.81 0H14m2.595 0v2.595M14 27.973v2.595m7.784-2.595h2.594m7.784 0h-2.594m2.594 0v2.595m-2.594-2.595v2.595m18.162-2.595h-2.595m2.595 0h2.594m-2.594 0v2.595m-2.595-2.595v2.595m5.19-5.19v2.595m0-2.595h2.594m-2.595 2.595h2.595m-2.595 0v2.595m2.595-5.19v2.595m0 0h2.595m-2.595 0v2.595m2.595-2.595v2.595m5.189-2.595h2.594v2.595m-2.594-2.595v2.595m18.162-2.595H76.27m2.595 0v2.595m-2.595-2.595v2.595m18.162-2.595h-2.594m2.594 0v2.595m-2.594-2.595v2.595m7.784-2.595h2.594m7.784 0h-2.595m2.595 0v2.595m-2.595-2.595v2.595m-90.81 0H14m2.595 0v2.594m0-2.594h2.594m-5.189 0v2.594h2.595m15.567-2.594h-2.594m2.594 0v2.594h-2.594m0-2.594h-2.595m2.595 0v2.594m18.162-2.594h-2.595m2.595 0h2.594m-2.594 0v2.594m-2.595-2.594v2.594m5.19-2.594h2.594m-2.595 0v2.594m5.19-2.594h-2.595m2.595 0h2.594v2.594m-2.594-2.594v2.594m-2.595-2.594v2.594m10.378-2.594h-2.594m2.594 0v2.594m-2.594-2.594v2.594m10.378-5.189h-2.594v2.595m2.594-2.595v2.595m0-2.595h2.595v2.595m-2.595 0h-2.594m2.594 0h2.595m-2.595 0v2.594m-2.594-2.594h-2.595v2.594m2.595-2.594v2.594m5.189-2.594v2.594m5.189-2.594H76.27m2.595 0v2.594m-2.595-2.594v2.594m18.162-2.594h-2.594m2.594 0v2.594m0-2.594h2.595m-5.19 0v2.594h2.595M110 30.568h-2.595m2.595 0v2.594h-2.595m0-2.594h-2.594m2.594 0v2.594m-90.81 0h2.594m0-2.594v2.594m0-2.594h2.595m-2.595 2.594h2.595m0-2.594v2.594m0-2.594h2.594m-2.594 2.594h2.594m0-2.594v2.594m0-2.594h2.595m-2.595 2.594h2.595m0-2.594v2.594m0 0h2.595m7.783 0v-2.594h-2.594v2.594h2.594Zm0 0h2.595m-2.595 0v2.595h2.595m2.595-2.595v-2.594h-2.595v2.594m2.595 0h-2.595m2.595 0v2.595m0-2.595h2.594m-5.19 0v2.595m7.785-2.595h-2.595m2.595 0h2.594m-2.594 0v2.595m-2.595-2.595v2.595m7.784-2.595h-2.595m2.595 0h2.595m-2.595 0v2.595m-2.595-2.595v2.595m7.784-2.595h-2.594m2.594 0v2.595h-2.594m0-2.595v2.595m7.783-2.595h-2.594m2.594 0v2.595m-2.594-2.595v2.595h2.594m5.19-2.595h-2.595m2.595 0v2.595m0-2.595h2.594m-5.19 0v2.595m7.785-2.595H71.08m2.595 0h2.594m-2.594 0v2.595m-2.595-2.595v2.595h-2.594m10.378-2.595H76.27m2.595 0h2.595m-2.595 0v2.595m-2.595-2.595v2.595m7.784-2.595v-2.594H81.46v2.594m2.594 0H81.46m2.594 0h2.595m-2.595 0v2.595h2.595m-5.19-2.595v2.595m7.784-2.595v-2.594H86.65v2.594m2.594 0H86.65m2.594 0v2.595m-2.594-2.595v2.595m7.783-2.595h2.595m0-2.594v2.594m0-2.594h2.595m-2.595 2.594h2.595m0-2.594v2.594m0-2.594h2.594m-2.594 2.594h2.594m0-2.594v2.594m0-2.594h2.595m-2.595 2.594h2.595m0-2.594v2.594m0 0h2.594m-67.46 2.595h2.596m-2.595 0v2.594m2.595-2.594h2.594m-2.594 0v2.594m2.594-2.594v2.594m0-2.594h2.595m2.594 0H47.73m2.594 0v2.594m0-2.594h2.595m-5.19 0v2.594m7.785-2.594h-2.595m2.595 0v2.594h-2.595m0-2.594v2.594m10.378-2.594h2.595m-2.595 0v2.594m5.19-2.594h-2.595m2.595 0v2.594m-2.595-2.594v2.594m10.378-2.594h-2.594m2.594 0v2.594m-2.594-2.594v2.594m7.784-2.594h-2.595m2.595 0v2.594m-2.595-2.594v2.594m7.784-2.594h2.594m-2.594 0v2.594h2.594m0-2.594v2.594m-64.865-2.594h-2.594v2.594m2.594-2.594v2.594m0-2.594h2.595v2.594m-2.595 0h-2.594m2.594 0h2.595m-2.595 0v2.595m-2.594-2.595v2.595m5.189-2.595h2.595m-2.595 0v2.595m5.19-5.19h-2.595v2.595m2.594-2.594v2.594m0-2.594h2.595v2.594m-2.595 0h-2.594m2.594 0h2.595m-2.595 0v2.595m-2.594-2.595v2.595m5.189-2.595v2.595h-2.595m10.379-2.595h-2.595m2.595 0h2.594m-2.594 0v2.595m-2.595-2.595v2.595h2.595m2.594-2.595h2.595m0 0h2.594m0 0h2.595m-2.595 0v2.595h2.595m0-2.595v2.595m12.973-2.595h-2.595m2.595 0h2.595m-2.595 0v2.595h2.595m-5.19-2.595h-2.594v2.595m2.594-2.595v2.595m5.19-2.595v2.595m7.783-2.595h-2.594m2.594 0v2.595m0-2.595h2.595m-5.19 0v2.595m7.785-2.595h-2.595m2.595 0v2.595m-2.595-2.595v2.595m10.378-2.595h2.595v2.595m-2.595-2.595v2.595m12.973-5.19h-2.594v2.595m2.594-2.594v2.594m0-2.594h2.595v2.594m-2.595 0h-2.594m2.594 0h2.595m-2.595 0v2.595m-2.594-2.595h-2.595m2.595 0v2.595m5.189-2.595v2.595m-80.433 0h-2.594m2.594 0h2.595m-2.595 0v2.595m-2.594-2.595h-2.595v2.595m2.595-2.595v2.595m7.784-2.595h-2.595m2.595 0v2.595m0-2.595h2.594m-5.189 0v2.595m5.19-2.595v2.595h-2.595m12.973-2.595h2.594v2.595m-2.594-2.595v2.595m10.378-2.595h2.595v2.595m-2.595-2.595v2.595h2.595m7.783-2.595h-2.594m2.594 0v2.595h-2.594v-2.595m7.784 0h2.594v2.595m-2.594-2.595v2.595m7.783-2.595h-2.594m2.594 0h2.595m-2.595 0v2.595m-2.594-2.595v2.595h2.594m2.595-2.595h2.595m-2.595 0v2.595m2.595-2.595v2.595m10.378-2.595h-2.595m2.595 0v2.595m0-2.595h2.594m-5.189 0v2.595m7.784-5.19h-2.595v2.595m2.595-2.595v2.595m0 0h-2.595m2.595 0h2.595m-5.19 0v2.595m5.19-2.595h2.594m-2.594 0v2.595m2.594-2.595h2.595m-2.595 0v2.595m2.595-2.595h2.594m-2.594 0v2.595m-88.216 0v-2.595H14v2.595h2.595Zm0 0h2.594m-2.594 0v2.594h2.594v-2.594m2.595 0h-2.595m2.595 0h2.594m-2.594 0v2.594m5.189-2.594h-2.595m2.595 0h2.595m-5.19 0v2.594m20.757-2.594h-2.594m2.594 0h2.595v2.594m-2.595-2.594v2.594m-2.594-2.594h-2.595v2.594m2.595-2.594v2.594h-2.595m15.568-2.594h2.594v2.594m-2.594-2.594v2.594m15.567-2.594h-2.594m2.594 0v2.594h-2.594m0-2.594v2.594m7.783-2.594h2.595m0 0h2.595m0 0h2.594m-2.594 0v2.594h2.594m7.784-2.594h-2.595m2.595 0h2.594m-2.594 0v2.594m-2.595-2.594v2.594m5.19-2.594v2.594m7.783-2.594h-2.594m2.594 0h2.595m-2.595 0v2.594h2.595m-5.19-2.594h-2.594v2.594m2.595-2.594v2.594h-2.595m10.378-5.19v2.596m0-2.595H110v2.595h-2.595m0 0h-2.594m0 0v2.594m-80.433 0h-2.594m2.594 0v2.595h-2.594v-2.595m15.567 0v-2.594h-2.594v2.594m2.594 0h-2.594m2.594 0v2.595m0-2.595h2.595m-5.19 0v2.595m5.19-2.595v2.595m7.784-2.595h-2.595m2.595 0v2.595m-2.595-2.595v2.595m12.973-2.595h-2.594m2.594 0v2.595m0-2.595h2.595v2.595h-2.595m-2.594-2.595h-2.595m2.595 0v2.595m12.973-2.595h-2.595v2.595h2.595v-2.595Zm15.567-2.594v2.594m0-2.594h2.595v2.594m-2.595 0h2.595m0 0h2.594m-2.594 0v2.595m5.189-2.595h-2.595m2.595 0h2.594m-2.594 0v2.595m-2.595-2.595v2.595m5.19-2.595v2.595m0-2.595h2.594m0 0v2.595m7.784-2.595h2.594v2.595h-2.594m0-2.595v2.595m-75.243-2.595h-2.595v2.595h2.595m0-2.595v2.595m0-2.595h2.594v2.595m-2.594 0h2.594m0 0h2.595m-2.595 0v2.594m5.19-2.594h-2.595m2.594 0h2.595m-2.595 0v2.594m-2.594-2.594v2.594m5.189-2.594v2.594m0-2.594h2.595v2.594m5.189-2.594h-2.595m2.595 0v2.594m-2.595-2.594v2.594m7.784-5.189h-2.595v2.595h2.595m0-2.595v2.595m0 0h2.595m0 0h2.594m31.135 0H86.65m2.594 0v2.594m0-2.594h2.595m-5.19 0h-2.594m2.595 0v2.594m7.783-2.594h-2.594m2.594 0h2.595m-2.595 0v2.594h2.595m-5.19-2.594v2.594m5.19-2.594v2.594m0-2.594h2.595v2.594m5.189-2.594h-2.595v2.594m2.595-2.594v2.594m-85.622 0V48.73h-2.594v2.594m2.594 0h-2.594m2.594 0h2.595v2.595m-2.595-2.595v2.595h2.595m-5.19-2.595H14v2.595h2.595v-2.595Zm18.163 0h-2.595m2.595 0h2.594m-2.594 0v2.595m-2.595-2.595h-2.594m2.594 0v2.595h-2.594m7.783-2.595h2.595m-2.595 0v2.595m2.595-2.595h2.595m-2.595 0v2.595h2.595m0-2.595v2.595m0-2.595h2.594m2.595 0h-2.595m2.595 0v2.595m-2.595-2.595v2.595m33.73-2.595V48.73H76.27v2.594m2.595 0H76.27m2.595 0v2.595m0-2.595h2.595m-5.19 0v2.595m7.784-5.19H81.46v2.595m2.594-2.594v2.594m0 0H81.46m2.594 0h2.595m-2.595 0v2.595m-2.594-2.595v2.595m5.189-2.595h2.594m-2.594 0v2.595m2.594-2.595h2.595m-2.595 0v2.595m2.595-2.595v2.595h-2.595m7.784-2.595h2.595m0 0h2.594m-2.594 0v2.595m5.189-2.595h-2.595m2.595 0v2.595m0-2.595h2.594m-5.189 0v2.595m-80.432 0h2.594m-2.594 0v2.595m5.189-5.19h-2.595v2.595m2.595-2.595v2.595m0-2.595h2.595m-2.595 2.595h-2.595m2.595 0h2.595m-2.595 0v2.595m-2.595-2.595v2.595m5.19-5.19v2.595m7.783 0h-2.594m2.594 0v2.595m-2.594-2.595v2.595m7.784-2.595h2.594m0 0h2.595m-2.595 0v2.595m2.595-2.595v2.595h-2.595m33.73-2.595H76.27m2.595 0h2.595m-2.595 0v2.595m-2.595-2.595v2.595m5.19-2.595h2.594m-2.594 0v2.595m2.594-2.595h2.595m-2.595 0v2.595m2.595-2.595h2.594m-2.594 0v2.595m2.594-2.595v2.595H86.65m15.567-2.595h-2.594m2.594 0h2.595m-2.595 0v2.595m-2.594-2.595h-2.595m2.595 0v2.595m5.189-2.595h2.594m-2.594 0v2.595m2.594-5.19v2.595m0-2.595H110v2.595m-2.595 0H110m-2.595 0v2.595M110 53.919v2.595m-85.622 0h-2.594m2.594 0h2.595m-2.595 0v2.594h2.595m-5.19-2.594H19.19m2.595 0v2.594h-2.595m7.784-2.594v2.594m10.378-2.594h-2.594m2.594 0v2.594m-2.594-2.594v2.594h2.594m7.784-2.594h-2.594v2.594m2.594-2.594v2.594m33.73-2.594H76.27m2.595 0v2.594m0-2.594h2.595m-5.19 0v2.594h2.595m5.189-2.594H81.46m2.594 0h2.595m-2.595 0v2.594m-2.594-2.594v2.594h-2.595m7.784-2.594v2.594m10.378-5.19h-2.595v2.596m2.595-2.595v2.595m0 0h-2.595m2.595 0h2.595m-5.19 0h-2.594v2.594m2.594-2.594v2.594h-2.594m7.784-2.594h2.594m0 0h2.595m-2.595 0v2.594m2.595-2.594v2.594M110 56.514h-2.595m2.595 0v2.594h-2.595m0-2.594v2.594m-88.216-2.594h-2.594v2.594h2.594m0-2.594v2.594m7.784 0h2.595m-2.595 0v2.595m2.595-2.595h2.594v-2.594h-2.594v2.594Zm0 0v2.595m7.783-2.595h2.595m-2.595 0v2.595h2.595m5.19-2.595H42.54m2.595 0v2.595m0-2.595h2.595v2.595h-2.595m-2.594-2.595h-2.595m2.595 0v2.595m44.108-2.595h-2.595m2.595 0v2.595m-2.595-2.595v2.595m7.784-2.595h-2.595v2.595m2.595-2.595v2.595h-2.595m15.568-2.595h-2.595m2.595 0v2.595m0-2.595h2.594m-5.189 0v2.595m5.189-2.595v2.595m-77.837 0h-2.595m2.595 0v2.594m0-2.594h2.594v2.594m-5.189-2.594h-2.595m2.595 0v2.594m12.973-5.189v2.595m0 0h2.595m-2.595 0v2.594h2.595m0-2.594h2.594m-2.594 0v2.594m44.108-2.594h-2.595m2.595 0v2.594m0-2.594h2.594m-5.189 0H81.46m2.594 0v2.594m5.19-2.594v2.594m15.567-2.594h-2.595m2.595 0h2.594m-2.594 0v2.594m-2.595-2.594v2.594m5.189-2.594H110v2.594h-2.595m0-2.594v2.594m-88.216 0v-2.594h-2.594v2.594m2.594 0h-2.594m2.594 0v2.595m-2.594-2.595H14v2.595h2.595m0-2.595v2.595m7.783-5.19h-2.594v2.595h2.594m0-2.594v2.594m0 0h2.595m-2.595 0v2.595m2.595-2.595h2.595m-2.595 0v2.595m2.595-2.595h2.594m0 0h2.595v2.595m-2.595-2.595v2.595m10.379-2.595h2.594v2.595h-2.594v-2.595Zm38.919-2.594h-2.595v2.594m2.595-2.594v2.594m0 0h-2.595m2.595 0h2.594m-2.594 0v2.595h-2.595m0-2.595v2.595m5.189-2.595h2.595m-2.595 0v2.595h2.595m0-2.595h2.594m-2.594 0v2.595m2.594-2.595v2.595m0-2.595h2.595v2.595m7.784-2.595v-2.594h-2.595v2.594m2.595 0h-2.595m2.595 0v2.595m0-2.595h2.594m-5.189 0h-2.595v2.595m2.595-2.595v2.595m7.784-2.595h-2.595m2.595 0h2.594m-2.594 0v2.595m-2.595-2.595v2.595m5.189-2.595v2.595m-90.81 0h2.594m-2.594 0v2.595m2.594-2.595v2.595m0-2.595h2.595m5.189 0h-2.595m2.595 0h2.595m-2.595 0v2.595h2.595m-5.19-2.595h-2.594m2.594 0v2.595m10.379-2.595h-2.595m2.595 0v2.595m0-2.595h2.594v2.595h-2.594m-2.595-2.595h-2.594m2.594 0v2.595m46.703-2.595H76.27v2.595h2.595m0-2.595v2.595m7.784-2.595h2.594m-2.594 0v2.595m2.594-2.595h2.595m-2.595 0v2.595m2.595-2.595h2.594m-2.594 0v2.595m5.189-2.595h-2.595m2.595 0h2.595m-2.595 0v2.595m-2.595-2.595v2.595m5.19-2.595h2.594m-2.594 0v2.595m2.594-2.595v2.595m5.189-2.595h-2.594m2.594 0v2.595m0-2.595H110v2.595h-2.595m-2.594-2.595v2.595m-85.622 0h-2.594m2.594 0h2.595m-2.595 0v2.594m-2.594-2.594H14v2.594h2.595v-2.594Zm5.189-2.595v2.595m0 0h2.594m-2.594 0v2.594m2.594-2.594v2.594m5.19-5.19v2.596m0 0h2.594m0 0h2.595m-2.595 0v2.594m2.595-2.594v2.594m44.108-2.594h2.595m-2.595 0v2.594m10.378-2.594H86.65m2.594 0v2.594m0-2.594h2.595m-5.19 0h-2.594m2.595 0v2.594m7.783-2.594h-2.594m2.594 0h2.595m-2.595 0v2.594h2.595m-5.19-2.594v2.594m7.785-2.594h-2.595m2.595 0h2.594m-2.594 0v2.594m-2.595-2.594v2.594m5.189-2.594v2.594m5.189-2.594h-2.594m2.594 0v2.594m-2.594-2.594v2.594m-83.027 0h-2.595m2.595 0h2.594m-2.594 0v2.595h-2.595V72.08m5.19 0h2.594v2.595m-2.595-2.595v2.595h2.595m7.784-2.595h-2.595m2.595 0v2.595m-2.595-2.595h-2.594v2.595m2.594-2.595v2.595m10.379-5.19h-2.595v2.595m2.595-2.594v2.594m0-2.594h2.594v2.594m-2.594 0h-2.595m2.595 0h2.594m-2.594 0v2.595m-2.595-2.595H37.35v2.595m2.595-2.595v2.595m5.19-2.595v2.595m0-2.595h2.594v2.595h-2.595m36.325-5.19v2.595m0-2.594h2.594M81.46 72.08h-2.595m2.595 0h2.594m-2.594 0v2.595m-2.595-2.595H76.27v2.595m2.595-2.595v2.595m5.189-5.19v2.595m0 0h2.595m-2.595 0v2.595m2.595-2.595h2.594m-2.594 0v2.595m2.594-2.595h2.595m-2.595 0v2.595m2.595-2.595v2.595m5.189-2.595h2.595m-2.595 0v2.595m2.595-2.595h2.594m-2.594 0v2.595m2.594-2.595v2.595m0-2.595h2.595m2.594 0h-2.594m2.594 0H110v2.595h-2.595m0-2.595v2.595m-2.594-2.595v2.595m-77.838 0h2.595m-2.595 0v2.594h2.595m2.594-2.594h-2.594m2.594 0h2.595m-5.19 0v2.594m5.19-2.594h2.594m-2.594 0v2.594m5.189-2.594H37.35m2.595 0h2.595m-2.595 0v2.594m-2.595-2.594v2.594m5.19-2.594h2.594m-2.594 0v2.594h-2.595m38.919-2.594H76.27m2.595 0h2.595m-2.595 0v2.594m-2.595-2.594v2.594m5.19-2.594v2.594m5.189-2.594h-2.595m2.595 0v2.594m0-2.594h2.594m-5.189 0v2.594h2.595m5.189-2.594h-2.595m2.595 0v2.594m0-2.594h2.594m-5.189 0v2.594m10.379-2.594h-2.595m2.595 0h2.594m-2.594 0v2.594m-2.595-2.594h-2.595m2.595 0v2.594m5.189-2.594h2.595m-2.595 0v2.594m2.595-2.594v2.594m0-2.594h2.594m0 0v2.594m-77.837 0h2.594m-2.594 0v2.595m7.783-2.595h-2.594m2.594 0h2.595m-2.595 0v2.595m-2.594-2.595h-2.595m2.595 0v2.595m5.189-2.595v2.595m38.919-2.595H76.27m2.595 0h2.595m-2.595 0v2.595M76.27 77.27h-2.594v2.595h2.594m0-2.595v2.595m5.19-2.595v2.595m5.189-2.595h2.594m-2.594 0v2.595h2.594m0-2.595h2.595m-2.595 0v2.595m2.595-2.595h2.594m-2.594 0v2.595m2.594-5.19v2.595m0 0h2.595m-2.595 0v2.595m2.595-2.595v2.595m5.189-2.595h-2.594m2.594 0h2.595m-2.595 0v2.595m-2.594-2.595v2.595m5.189-2.595h2.594m-2.594 0v2.595h2.594V77.27m-90.81 0H14v2.595m2.595-2.595v2.595m0-2.595h2.594v2.595m-2.594 0H14m2.595 0h2.594m-2.594 0v2.595M14 79.865v2.595m5.19-2.595v2.595m0-2.595h2.594m2.594 0V77.27h-2.594v2.595m2.594 0h-2.594m2.594 0h2.595m-2.595 0v2.595m-2.594-2.595v2.595m10.378-5.19v2.595m0 0h-2.594m2.594 0h2.595m-5.19 0h-2.594m2.595 0v2.595m5.189-2.595h2.594m-2.594 0v2.595m2.594-2.595h2.595m-2.595 0v2.595m2.595-2.595h2.595m-2.595 0v2.595m10.378-5.19H47.73v2.595m2.594-2.595v2.595m0-2.595h2.595v2.595m-2.595 0H47.73m2.594 0h2.595m-2.595 0v2.595m-2.594-2.595v2.595m5.189-2.595v2.595h-2.595m10.379-5.19h-2.595v2.595h2.595m0-2.595v2.595m0-2.595h2.594m-2.594 2.595h2.594m0-2.595v2.595m0-2.595h2.595m-2.595 2.595h2.595m0-2.595v2.595m0-2.595h2.595v2.595m-2.595 0h2.595m-2.595 0v2.595h2.595m0-2.595v2.595m7.783-2.595h2.595m0 0h2.595m0 0h2.594v2.595m-2.594-2.595v2.595m7.783-2.595h2.595m-2.595 0v2.595m2.595-2.595h2.594m-2.594 0v2.595m2.594-2.595h2.595m0 0h2.595m-2.595 0v2.595m5.189-2.595h-2.594m2.594 0v2.595h-2.594m0-2.595v2.595m-83.027 0H14m2.595 0h2.594m-2.594 0v2.594M14 82.46v2.594m5.19-2.594h2.594m-2.595 0v2.594m2.595-2.594v2.594m5.189-5.19v2.596m0 0h-2.595m2.595 0h2.595m-2.595 0v2.594m-2.595-2.594v2.594m5.19-2.594v2.594m0-2.594h2.594v2.594m5.19-2.594h-2.595m2.594 0v2.594m-2.594-2.594v2.594m7.784-5.19v2.596m0-2.595h2.594v2.595h-2.594m0 0h-2.595m2.595 0v2.594m-2.595-2.594v2.594m10.378-2.594H47.73m2.594 0v2.594M47.73 82.46v2.594m20.757-2.594h2.594m-2.594 0v2.594m15.567-2.594H81.46m2.594 0v2.594m0-2.594h2.595m-5.19 0v2.594h2.595m7.784-2.594h-2.595m2.595 0h2.594m-2.594 0v2.594m-2.595-2.594H86.65m2.594 0v2.594m10.379-2.594h-2.595m2.595 0v2.594m-2.595-2.594h-2.595m2.595 0v2.594m-80.432 0H14m2.595 0h2.594m-2.594 0v2.595M14 85.054v2.595m5.19-2.595h2.594m-2.595 0v2.595h2.595m0-2.595v2.595m0-2.595h2.594m2.595 0h-2.595m2.595 0h2.595m-2.595 0v2.595m-2.595-2.595v2.595m5.19-2.595h2.594m-2.594 0v2.595m2.594-2.595h2.595m-2.595 0v2.595m5.19-2.595h-2.595m2.594 0v2.595m0-2.595h2.595m-5.19 0v2.595m7.785-2.595h-2.595m2.595 0h2.594v2.595h-2.594v-2.595Zm-2.595 0v2.595m10.378-2.595H47.73m2.594 0v2.595m0-2.595h2.595v2.595m-5.19-2.595v2.595h2.595m20.757-5.19v2.595m0-2.594h2.595m-2.595 2.594h-2.594m2.594 0h2.595m-2.595 0v2.595m-2.594-2.595v2.595m5.189-5.19v2.595m0-2.594h2.594m-2.594 2.594h2.594m-2.594 0v2.595m2.594-5.19v2.595m0-2.594h2.595v2.594H76.27m0 0v2.595m7.784-2.595h2.595m0-2.594v2.594m0 0h2.594m-2.594 0v2.595m2.594-2.595v2.595m0-2.595h2.595m2.594-2.594v2.594m0 0h-2.594m2.594 0h2.595m-2.595 0v2.595m-2.594-2.595v2.595m5.189-2.595h2.595m-2.595 0v2.595m2.595-2.595v2.595m0-2.595h2.594m5.189-2.594h-2.594v2.594m2.594-2.594v2.594m0-2.594H110v2.594h-2.595m0 0h-2.594m0 0h-2.595m2.595 0v2.595m-88.216 0H14m2.595 0v2.594H14V87.65m7.784 0h2.594m-2.594 0v2.594h2.594V87.65m0 0h2.595m0 0h2.595m0 0h2.594m-2.594 0v2.594h2.594V87.65m2.595 0h-2.595m2.595 0h2.594m0 0h2.595m-2.595 0v2.594m2.595-2.594v2.594m10.378-2.594h2.595m-2.595 0v2.594h2.595m0-2.594v2.594m12.973-2.594v-2.595h-2.595v2.595m2.595 0h-2.595m2.595 0v2.594m0-2.594h2.595m-5.19 0h-2.594m2.594 0v2.594m7.784-2.594h-2.594m2.594 0v2.594m0-2.594h2.595m-5.19 0v2.594m7.784-2.594h-2.594m2.594 0h2.595m-2.595 0v2.594h2.595m-5.19-2.594v2.594m15.568-2.594H86.65m2.594 0h2.595m-2.595 0v2.594M86.65 87.65v2.594m5.189-2.594v2.594m0-2.594h2.594m2.595 0h-2.595m2.595 0h2.595m-2.595 0v2.594m-2.595-2.594v2.594m5.19-2.594h2.594m-2.594 0v2.594m2.594-5.189v2.595m0 0h2.595m-2.595 0v2.594m2.595-2.594v2.594m-64.865 0H37.35m2.595 0h2.595m-2.595 0v2.595m-2.595-2.595h-2.594v2.595m2.594-2.595v2.595m15.568-2.595h2.595m-2.595 0v2.595m7.784-5.19h-2.595v2.595m2.595-2.594v2.594m0 0h-2.595m2.595 0h2.594m-2.594 0v2.595m-2.595-2.595h-2.594m2.594 0v2.595h-2.594m7.783-2.595h2.595m-2.595 0v2.595m2.595-2.595h2.595m-2.595 0v2.595m2.595-2.595h2.594m-2.594 0v2.595m2.594-2.595h2.595m-2.595 0v2.595h2.595m0-2.595v2.595m5.189-5.19v2.595m0-2.594h2.595v2.594m-2.595 0h2.595m-2.595 0v2.595m2.595-2.595v2.595m7.783-2.595H86.65m2.594 0h2.595m-2.595 0v2.595m-2.594-2.595h-2.595v2.595m2.595-2.595v2.595m5.189-2.595h2.594m0 0h2.595m0 0h2.595m-2.595 0v2.595m2.595-2.595v2.595m0-2.595h2.594m2.595 0h-2.595m2.595 0v2.595m-2.595-2.595v2.595m-64.865 0h-2.594m2.594 0v2.594m0-2.594h2.595m-5.19 0v2.594h2.595m5.19-5.189v2.595m0-2.595h2.594m-2.594 2.595h-2.595m2.595 0h2.594m-2.594 0v2.594m-2.595-2.594v2.594m5.19-5.189v2.595m0-2.595h2.594v2.595m-2.595 0h2.595m-2.595 0v2.594m2.595-2.594v2.594m7.784-5.189v2.595m0 0h-2.595m2.595 0v2.594m-2.595-2.594h-2.595v2.594m2.595-2.594v2.594m10.378-2.594h-2.594m2.594 0h2.595m-2.595 0v2.594m-2.594-2.594v2.594h2.594m2.595-2.594h2.595m-2.595 0v2.594m2.595-2.594v2.594m5.189-2.594h2.594m-2.594 0v2.594m7.784-2.594h-2.595m2.595 0v2.594m0-2.594h2.594m-5.19 0H76.27m2.595 0v2.594m7.784-2.594h-2.595m2.595 0h2.594m-2.594 0v2.594m-2.595-2.594v2.594m5.19-2.594v2.594m10.378-2.594h-2.595m2.595 0h2.594m-2.594 0v2.594m-2.595-2.594v2.594m5.189-2.594h2.595m-2.595 0v2.594m2.595-2.594v2.594m-88.216-2.594H14v2.594m2.595-2.594v2.594m0-2.594h2.594m-2.594 2.594H14m2.595 0h2.594m-2.594 0v2.595M14 95.432v2.595m5.19-5.19v2.595m0-2.594h2.594m-2.595 2.594h2.595m0-2.594v2.594m0-2.594h2.594m-2.594 2.594h2.594m0-2.594v2.594m0-2.594h2.595m-2.595 2.594h2.595m0-2.594v2.594m0-2.594h2.595m-2.595 2.594h2.595m0-2.594v2.594m0-2.594h2.594v2.594m-2.594 0h2.594m-2.594 0v2.595m2.594-2.595v2.595m5.19-2.595h2.594m0 0h2.595m-2.595 0v2.595m5.19-2.595H42.54m2.595 0h2.595m-5.19 0v2.595m5.19-2.595h2.594m-2.594 0v2.595m5.189-2.595h-2.595m2.595 0h2.595m-5.19 0v2.595m5.19-2.595h2.594v2.595m-2.594-2.595v2.595m7.783-2.595h2.595m0 0h2.595m-2.595 0v2.595m2.595-2.595v2.595m7.783-5.19v2.595m0 0h-2.594m2.594 0h2.595m-2.595 0v2.595h-2.594m0-2.595H71.08v2.595m2.595-2.595v2.595m5.189-2.595h2.595m-2.595 0v2.595h2.595m0-2.595h2.594m-2.594 0v2.595m2.594-2.595h2.595m-2.595 0v2.595m5.19-2.595h-2.595m2.594 0v2.595m-2.594-2.595v2.595m12.973-2.595h-2.595m2.595 0h2.594m-2.594 0v2.595m-2.595-2.595v2.595m5.189-2.595h2.595m-2.595 0v2.595h-2.594m5.189-2.595h2.594m-2.594 0v2.595h2.594m0-2.595H110v-2.594h-2.595v2.594Zm0 0v2.595m-90.81 0H14m2.595 0v2.595M14 98.027v2.595m18.162-2.595h-2.594m2.594 0v2.595m-2.594-2.595v2.595m12.973-2.595h-2.595m2.595 0v2.595m0-2.595h2.594m-5.19 0v2.595m10.38-2.595H47.73m2.594 0v2.595m-2.594-2.595h-2.595m2.595 0v2.595m10.378-2.595h-2.594m2.594 0v2.595m-2.594-2.595h-2.595v2.595m2.595-2.595v2.595m12.973-2.595h-2.595m2.595 0h2.594m-2.594 0v2.595m-2.595-2.595h-2.595m2.595 0v2.595h-2.595m10.379-2.595H71.08m0 0v2.595m10.379-2.595h2.594m-2.594 0v2.595m5.189-2.595h-2.595m2.595 0h2.594m-2.594 0v2.595m-2.595-2.595v2.595m5.19-2.595v2.595m0-2.595h2.594m7.784 0h-2.595m2.595 0v2.595m-2.595-2.595h-2.595m2.595 0v2.595m10.378-2.595H110v2.595h-2.595v-2.595Zm-90.81 2.595H14m2.595 0v2.594M14 100.622v2.594m7.784-5.189h-2.595v2.595m2.595-2.595v2.595m0-2.595h2.594m-2.594 2.595h-2.595m2.595 0h2.594m-2.594 0v2.594m-2.595-2.594v2.594m5.19-5.189v2.595m0-2.595h2.594v2.595m-2.595 0h2.595m-2.595 0v2.594m2.595-2.594v2.594m5.19-2.594h-2.595m2.594 0v2.594m-2.594-2.594v2.594m7.783-2.594v-2.595h-2.594v2.595m2.594 0h-2.594m2.594 0v2.594m-2.594-2.594v2.594h2.594m5.19-2.594h-2.595m2.595 0h2.594m-2.594 0v2.594m-2.595-2.594v2.594m5.19-5.189v2.595m0 0h2.594m-2.595 0v2.594m2.595-2.594h2.594m-2.594 0v2.594m2.594-2.594h2.595m-2.595 0v2.594m5.19-2.594h-2.595m2.595 0h2.594m-2.594 0v2.594m-2.595-2.594v2.594m5.19-2.594v2.594m0-2.594h2.594m2.594-2.595h-2.594v2.595m2.594-2.595v2.595m0 0h-2.594m0 0v2.594m10.378-2.594h-2.594m2.594 0v2.594h-2.594m0-2.594v2.594m15.567-2.594H81.46m2.594 0h2.595m-2.595 0v2.594m-2.594-2.594h-2.595m2.595 0v2.594m5.189-2.594h2.594m-2.594 0v2.594m2.594-2.594h2.595m-2.595 0v2.594H86.65m5.189-5.189v2.595m0-2.595h2.594m-2.594 2.595h2.594m-2.594 0v2.594h2.594m0-5.189v2.595m0 0h2.595m-2.595 0v2.594m2.595-2.594h2.595m0 0h2.594v2.594h-2.594m0-2.594v2.594m-83.027 0H14m2.595 0v2.595M14 103.216v2.595m7.784-2.595h-2.595m2.595 0h2.594m-2.594 0v2.595m-2.595-2.595v2.595h2.595m2.594-2.595h2.595m-2.595 0v2.595m2.595-2.595v2.595h-2.595m7.784-2.595h-2.594m2.594 0v2.595m-2.594-2.595v2.595m7.783-2.595h2.595m-2.595 0v2.595h2.595v-2.595m2.595 0h-2.595m2.595 0h2.594m-2.594 0v2.595m2.594-2.595h2.595m-2.595 0v2.595m2.595-2.595h2.594m-2.594 0v2.595m5.189-2.595h-2.595m2.595 0h2.595m-2.595 0v2.595m-2.595-2.595v2.595H47.73m10.378-2.595h-2.594m2.594 0h2.595m-2.595 0v2.595m-2.594-2.595v2.595m5.189-2.595v2.595m0-2.595h2.594m5.19 0h-2.595m2.595 0v2.595h-2.595m12.973-5.189H76.27v2.594m2.595-2.594v2.594m0 0H76.27m2.595 0h2.595m-2.595 0v2.595m-2.595-2.595h-2.594v2.595m2.594-2.595v2.595m5.19-2.595h2.594m-2.594 0v2.595m2.594-2.595h2.595m-2.595 0v2.595m2.595-2.595v2.595h-2.595m10.378-2.595h2.595m-2.595 0v2.595m5.19-2.595h-2.595m2.595 0v2.595m-83.027 0H14m2.595 0v2.594M14 105.811v2.594m7.784-2.594h2.594m7.784 0h-2.594m2.594 0v2.594m-2.594-2.594v2.594m15.567-2.594h-2.594m2.594 0v2.594m0-2.594h2.595m-5.19 0v2.594h2.595m2.595-2.594v2.594m7.784-2.594h-2.595m2.595 0v2.594h-2.595v-2.594m7.784 0h-2.595m2.595 0h2.594m-2.594 0v2.594m-2.595-2.594v2.594h2.595m2.594-5.189v2.595m0-2.595h2.595m-2.595 2.595h2.595m-2.595 0v2.594h-2.594m5.189-5.189v2.595m10.378 0h-2.594m2.594 0v2.594m0-2.594h2.595m-5.19 0v2.594m7.785-2.594h-2.595m2.595 0h2.594m-2.594 0v2.594m-2.595-2.594v2.594H76.27m7.784-2.594v2.594m12.973-5.189v2.595m0 0h-2.595m2.595 0h2.595m-2.595 0v2.594h-2.595v-2.594m5.19 0h2.594m-2.594 0v2.594m7.783-5.189h-2.594v2.595m2.594-2.595v2.595m0-2.595H110v2.595m-2.595 0h-2.594m2.594 0H110m-2.595 0v2.594m-2.594-2.594h-2.595m2.595 0v2.594m5.189-2.594v2.594m-93.405 0H14m2.595 0V111m0-2.595h2.594m-5.189 0V111h2.595m15.567-2.595h-2.594m2.594 0V111h-2.594m0-2.595h-2.595m2.595 0V111m15.567-2.595h2.595m-2.595 0V111h2.595m0-2.595V111m0-2.595h2.594V111H47.73m28.54-2.595h-2.594m2.594 0V111h-2.594m0-2.595H71.08V111h2.595m0-2.595V111m10.378-2.595H81.46m2.594 0V111H81.46v-2.595m20.756-2.594v2.594m0 0h-2.594m2.594 0h2.595m-2.595 0V111h-2.594v-2.595m5.189 0h2.594m0 0H110m-2.595 0V111H110v-2.595M16.595 111h2.594m0-2.595V111m0-2.595h2.595M19.189 111h2.595m0-2.595V111m0-2.595h2.594M21.784 111h2.594m0-2.595V111m0-2.595h2.595M24.378 111h2.595m0-2.595V111m0 0h2.595m36.324-96h2.595v2.595h-2.595V15ZM81.46 25.378h2.594v2.595H81.46v-2.595ZM55.514 82.46h2.594v2.594h-2.594V82.46Zm36.324 10.378h2.594v2.594h-2.594v-2.594Zm-25.946 15.567h2.595V111h-2.595v-2.595Zm20.757 0h2.594V111H86.65v-2.595Z" stroke="#000" stroke-width=".48"/><path d="M57.59 53c3.488.043 8.324 5.65 10.485 9.521 1.583-1.566 2.46-3.025 2.568-4.083.941.169 1.797.74 1.819 1.756.042 1.312-1.156 3.152-3.167 4.972.898 2.37 1.005 4.337.15 5.247-.386.38-.9.508-1.456.508.064-1.249-.235-2.645-.791-4.084-3.852 2.75-8.581 4.528-11.405 4.4-.942-.041-1.67-.295-2.097-.803a1.534 1.534 0 0 1-.3-1.545c3.959.593 9.394-2.158 12.603-4.57-2.696-4.845-7.468-9.309-10.356-9.309.085-1.206.727-2.03 1.947-2.01Z" stroke="#000" stroke-width=".209"/><path d="M66.17 73.375c-3.616 0-8.26-5.205-10.378-8.59-1.476 1.397-3.787 4.21-2.525 5.776-.192-.212-1.968-2.433-2.011-2.518-.835-1.417.428-3.766 2.974-6.114-.898-1.989-1.262-3.406-1.262-4.485 0-2.158 1.374-3.133 2.717-4.21-1.155 1.65.086 4.95.942 6.77 3.36-2.391 8.152-4.422 11.32-4.422 1.198 0 2.118.233 2.845 1.142l1.605 1.99c-2.717-2.307-10.635 1.48-14.187 4.061 2.161 3.364 8.238 10.304 11.448 7.976-.77.868-2.332 2.624-3.488 2.624Z" fill="#171720"/></svg>